<svg version="1.1" id="Layer_1" xmlns="http://www.w3.org/2000/svg" xmlns:xlink="http://www.w3.org/1999/xlink" x="0px" y="0px"
	 width="100%" viewBox="0 0 545 436" enable-background="new 0 0 545 436" xml:space="preserve">
<path fill="#5B2C34" opacity="1.000000" stroke="none" 
	d="
M545.000000,437.000000 
	C363.717316,437.000000 182.434631,437.000000 1.075972,437.000000 
	C1.075972,291.757935 1.075972,146.515839 1.075972,1.000000 
	C182.024811,1.000000 363.049744,1.000000 544.473877,1.460229 
	C544.864807,119.975517 544.847046,238.030579 544.855469,356.085632 
	C544.857361,383.057098 544.949463,410.028534 545.000000,437.000000 
M255.117004,299.894104 
	C252.721939,299.878662 250.326859,299.863220 247.239380,299.816528 
	C245.810471,300.419220 244.381577,301.021912 242.430557,302.010406 
	C241.520477,303.175262 240.610397,304.340118 239.251297,306.060333 
	C239.773834,308.820099 240.296371,311.579865 241.161102,314.909393 
	C242.397308,315.870544 243.633514,316.831696 245.128052,318.266235 
	C246.096146,318.778961 247.064255,319.291718 248.482544,320.170441 
	C248.989319,320.448334 249.496094,320.726257 250.258377,321.471008 
	C250.862305,321.782227 251.466232,322.093414 252.558777,322.833832 
	C253.601440,323.603210 254.644104,324.372620 255.871246,325.596619 
	C255.871246,325.596619 256.185059,325.973663 256.304260,326.783691 
	C255.585083,328.686401 254.865891,330.589081 253.364548,332.578033 
	C246.485046,334.397705 242.033951,331.551300 239.460739,324.177917 
	C237.695023,328.583923 235.663528,332.796509 240.582779,334.133301 
	C245.217819,335.392853 250.444916,334.473785 256.066315,334.382690 
	C257.027771,333.843262 257.989227,333.303864 259.567383,332.554138 
	C265.393066,326.633087 264.294159,319.990082 256.501129,316.208984 
	C256.344666,316.130890 256.188232,316.052765 255.702957,315.446930 
	C254.451019,314.746643 253.199097,314.046387 251.570587,313.086060 
	C251.570587,313.086060 251.146332,312.914459 250.788452,312.420624 
	C249.873672,312.057800 248.958878,311.694977 247.550629,310.865906 
	C246.909927,310.226501 246.269226,309.587097 245.580139,308.162079 
	C246.954163,306.052856 248.328201,303.943634 250.636871,301.911163 
	C251.577805,301.897858 252.518738,301.884552 253.941483,302.236115 
	C255.342560,303.145691 256.743622,304.055237 258.224762,305.354401 
	C258.414307,305.555450 258.603821,305.756500 258.793365,305.957550 
	C258.997467,305.640442 259.201569,305.323303 259.705994,304.394470 
	C260.634918,301.099945 260.328064,298.858582 255.117004,299.894104 
M312.440369,74.080528 
	C286.774597,54.239532 257.418396,49.003498 225.096878,51.786797 
	C228.049225,58.675419 230.820740,64.869621 233.339951,71.164787 
	C234.247208,73.431885 234.801819,75.913643 235.070709,78.346786 
	C235.574158,82.902641 234.064713,89.555046 236.495575,91.545181 
	C239.474548,93.984039 245.637314,92.536674 250.423996,92.760857 
	C250.922333,92.784195 251.608704,92.957146 251.891312,92.705376 
	C253.153702,91.580795 255.126541,90.450294 255.328354,89.096214 
	C255.838989,85.669952 255.525848,82.122246 255.560028,78.623360 
	C255.619553,72.530220 256.178101,71.990143 262.292877,73.200294 
	C287.859894,78.260132 307.862396,91.840393 321.486328,113.906860 
	C348.187958,157.155212 334.444061,212.223541 290.746277,238.321060 
	C280.256836,244.585632 268.982880,248.962036 255.541412,249.797913 
	C255.541412,244.585617 255.323181,239.809952 255.606613,235.064240 
	C255.858658,230.843811 254.624985,228.745911 250.047531,229.294724 
	C247.748260,229.570389 245.387756,229.327011 243.054993,229.333282 
	C235.111008,229.354614 234.837494,229.370575 235.217941,237.118088 
	C235.554932,243.980515 234.239639,250.259186 231.144165,256.367401 
	C228.928116,260.740326 227.276825,265.399414 225.297958,270.110748 
	C271.810211,275.659088 319.886566,258.445068 344.711334,208.144775 
	C367.211975,162.553741 353.891815,107.343124 312.440369,74.080528 
M190.331757,201.906311 
	C190.330368,207.234756 190.544983,212.574844 190.258499,217.887924 
	C190.033752,222.056137 191.566956,223.309174 195.690262,223.280624 
	C219.334122,223.116852 242.980026,223.274368 266.624603,223.172806 
	C285.508301,223.091705 301.748047,206.144638 301.384491,187.127319 
	C300.995575,166.783401 284.573517,150.403931 265.122803,150.809052 
	C262.569000,150.862228 261.432800,151.638275 261.471527,154.219711 
	C261.533936,158.381500 261.618561,162.551575 261.426514,166.705795 
	C261.271973,170.048538 262.397858,171.321976 265.926453,171.539948 
	C274.772919,172.086426 280.879089,178.635849 281.001587,187.080231 
	C281.121674,195.354401 274.752594,203.119049 266.158569,202.806778 
	C242.234665,201.937454 217.832443,207.243164 194.507721,197.814362 
	C191.295593,196.515884 190.208313,197.981155 190.331757,201.906311 
M203.134613,104.619209 
	C188.877045,114.164124 183.087265,130.158997 188.141693,146.038742 
	C193.052628,161.467651 208.453613,171.986099 224.980942,171.455063 
	C228.327698,171.347534 229.356339,170.057632 229.155075,166.936111 
	C228.973297,164.116989 229.134232,161.276596 229.119324,158.445724 
	C229.075363,150.093491 229.742859,150.880875 221.790344,150.517303 
	C209.982635,149.977448 202.964523,137.354248 208.829773,127.255516 
	C212.222610,121.413727 217.655106,118.956100 224.334122,118.967987 
	C238.821930,118.993759 253.311249,118.856110 267.796661,119.042633 
	C271.215942,119.086655 274.693512,119.889481 278.017487,120.804039 
	C282.909058,122.149925 287.686798,123.909660 293.396973,125.783112 
	C293.396973,117.936630 293.154633,111.142151 293.481842,104.375221 
	C293.701355,99.836548 291.902649,98.760437 287.666626,98.795403 
	C266.352570,98.971344 245.036209,98.912552 223.720825,98.862579 
	C216.550873,98.845764 209.849228,100.352005 203.134613,104.619209 
M255.533295,184.477264 
	C255.531845,166.501770 255.413513,148.524994 255.612686,130.551727 
	C255.661346,126.160393 254.239655,124.495453 249.871490,124.896065 
	C246.735275,125.183701 243.534958,125.164917 240.393707,124.908928 
	C236.147964,124.562943 235.033905,126.424881 235.066757,130.437576 
	C235.224823,149.743256 235.099213,169.051041 235.150040,188.357880 
	C235.175095,197.873917 233.900986,197.077179 244.043259,197.120667 
	C255.526169,197.169907 255.526276,197.145065 255.533295,184.477264 
M293.621033,334.276215 
	C302.262573,330.100159 305.673920,323.904022 304.466156,314.577881 
	C303.449402,306.726746 298.131317,300.970947 289.622833,300.108856 
	C282.596680,299.396912 275.440979,299.963379 269.210114,299.963379 
	C270.572845,311.927063 271.064148,323.688660 268.806152,336.180237 
	C276.391479,335.663696 284.634644,335.102325 293.621033,334.276215 
z"/>
<path fill="#D7CDCE" opacity="1.000000" stroke="none" 
	d="
M545.500000,437.000000 
	C544.949463,410.028534 544.857361,383.057098 544.855469,356.085632 
	C544.847046,238.030579 544.864807,119.975517 544.936523,1.460234 
	C545.333313,2.333344 545.956482,3.666354 545.957947,5.000057 
	C546.008545,50.333324 546.000000,95.666664 546.000000,141.000000 
	C546.000000,239.666672 546.000000,338.333344 545.500000,437.000000 
z"/>
<path fill="#B79763" opacity="1.000000" stroke="none" 
	d="
M312.712616,74.309128 
	C353.891815,107.343124 367.211975,162.553741 344.711334,208.144775 
	C319.886566,258.445068 271.810211,275.659088 225.297958,270.110748 
	C227.276825,265.399414 228.928116,260.740326 231.144165,256.367401 
	C234.239639,250.259186 235.554932,243.980515 235.217941,237.118088 
	C234.837494,229.370575 235.111008,229.354614 243.054993,229.333282 
	C245.387756,229.327011 247.748260,229.570389 250.047531,229.294724 
	C254.624985,228.745911 255.858658,230.843811 255.606613,235.064240 
	C255.323181,239.809952 255.541412,244.585617 255.541412,249.797913 
	C268.982880,248.962036 280.256836,244.585632 290.746277,238.321060 
	C334.444061,212.223541 348.187958,157.155212 321.486328,113.906860 
	C307.862396,91.840393 287.859894,78.260132 262.292877,73.200294 
	C256.178101,71.990143 255.619553,72.530220 255.560028,78.623360 
	C255.525848,82.122246 255.838989,85.669952 255.328354,89.096214 
	C255.126541,90.450294 253.153702,91.580795 251.891312,92.705376 
	C251.608704,92.957146 250.922333,92.784195 250.423996,92.760857 
	C245.637314,92.536674 239.474548,93.984039 236.495575,91.545181 
	C234.064713,89.555046 235.574158,82.902641 235.070709,78.346786 
	C234.801819,75.913643 234.247208,73.431885 233.339951,71.164787 
	C230.820740,64.869621 228.049225,58.675419 225.096878,51.786797 
	C257.418396,49.003498 286.774597,54.239532 312.712616,74.309128 
z"/>
<path fill="#B79763" opacity="1.000000" stroke="none" 
	d="
M190.337555,201.466446 
	C190.208313,197.981155 191.295593,196.515884 194.507721,197.814362 
	C217.832443,207.243164 242.234665,201.937454 266.158569,202.806778 
	C274.752594,203.119049 281.121674,195.354401 281.001587,187.080231 
	C280.879089,178.635849 274.772919,172.086426 265.926453,171.539948 
	C262.397858,171.321976 261.271973,170.048538 261.426514,166.705795 
	C261.618561,162.551575 261.533936,158.381500 261.471527,154.219711 
	C261.432800,151.638275 262.569000,150.862228 265.122803,150.809052 
	C284.573517,150.403931 300.995575,166.783401 301.384491,187.127319 
	C301.748047,206.144638 285.508301,223.091705 266.624603,223.172806 
	C242.980026,223.274368 219.334122,223.116852 195.690262,223.280624 
	C191.566956,223.309174 190.033752,222.056137 190.258499,217.887924 
	C190.544983,212.574844 190.330368,207.234756 190.337555,201.466446 
z"/>
<path fill="#B79763" opacity="1.000000" stroke="none" 
	d="
M203.448822,104.433197 
	C209.849228,100.352005 216.550873,98.845764 223.720825,98.862579 
	C245.036209,98.912552 266.352570,98.971344 287.666626,98.795403 
	C291.902649,98.760437 293.701355,99.836548 293.481842,104.375221 
	C293.154633,111.142151 293.396973,117.936630 293.396973,125.783112 
	C287.686798,123.909660 282.909058,122.149925 278.017487,120.804039 
	C274.693512,119.889481 271.215942,119.086655 267.796661,119.042633 
	C253.311249,118.856110 238.821930,118.993759 224.334122,118.967987 
	C217.655106,118.956100 212.222610,121.413727 208.829773,127.255516 
	C202.964523,137.354248 209.982635,149.977448 221.790344,150.517303 
	C229.742859,150.880875 229.075363,150.093491 229.119324,158.445724 
	C229.134232,161.276596 228.973297,164.116989 229.155075,166.936111 
	C229.356339,170.057632 228.327698,171.347534 224.980942,171.455063 
	C208.453613,171.986099 193.052628,161.467651 188.141693,146.038742 
	C183.087265,130.158997 188.877045,114.164124 203.448822,104.433197 
z"/>
<path fill="#B79763" opacity="1.000000" stroke="none" 
	d="
M255.532501,184.970978 
	C255.526276,197.145065 255.526169,197.169907 244.043259,197.120667 
	C233.900986,197.077179 235.175095,197.873917 235.150040,188.357880 
	C235.099213,169.051041 235.224823,149.743256 235.066757,130.437576 
	C235.033905,126.424881 236.147964,124.562943 240.393707,124.908928 
	C243.534958,125.164917 246.735275,125.183701 249.871490,124.896065 
	C254.239655,124.495453 255.661346,126.160393 255.612686,130.551727 
	C255.413513,148.524994 255.531845,166.501770 255.532501,184.970978 
z"/>
<path fill="#B29064" opacity="1.000000" stroke="none" 
	d="
M293.249390,334.408600 
	C284.634644,335.102325 276.391479,335.663696 268.806152,336.180237 
	C271.064148,323.688660 270.572845,311.927063 269.210114,299.963379 
	C275.440979,299.963379 282.596680,299.396912 289.622833,300.108856 
	C298.131317,300.970947 303.449402,306.726746 304.466156,314.577881 
	C305.673920,323.904022 302.262573,330.100159 293.249390,334.408600 
M278.533081,303.129425 
	C278.403168,312.089874 278.191803,321.050873 278.249207,330.010132 
	C278.256195,331.097107 279.500824,332.806030 280.531677,333.150726 
	C285.847229,334.928223 292.281769,332.149139 294.121246,326.826447 
	C295.388092,323.160828 296.026794,319.039124 295.866760,315.165802 
	C295.445862,304.978638 289.255249,300.503418 278.533081,303.129425 
z"/>
<path fill="#B49365" opacity="1.000000" stroke="none" 
	d="
M244.869705,317.792847 
	C243.633514,316.831696 242.397308,315.870544 240.942291,314.192200 
	C240.382431,310.818359 240.041382,308.161652 239.700317,305.504974 
	C240.610397,304.340118 241.520477,303.175262 242.791199,302.192993 
	C243.977402,304.566254 244.802963,306.756958 245.628540,308.947662 
	C246.269226,309.587097 246.909927,310.226501 247.987396,311.322693 
	C249.331558,312.157776 250.238953,312.536102 251.146332,312.914459 
	C251.146332,312.914459 251.570587,313.086060 251.908127,313.485474 
	C253.507706,314.581482 254.769730,315.278076 256.031769,315.974670 
	C256.188232,316.052765 256.344666,316.130890 256.841064,316.642944 
	C262.516113,321.770752 262.121002,327.111053 258.950684,332.764435 
	C257.989227,333.303864 257.027771,333.843262 255.548752,334.211823 
	C254.736359,333.524567 254.441528,333.008179 254.146698,332.491791 
	C254.865891,330.589081 255.585083,328.686401 256.260498,326.243469 
	C256.152985,325.412872 255.976349,325.225800 255.686768,325.142029 
	C254.644104,324.372620 253.601440,323.603210 252.165878,322.411743 
	C251.182938,321.661194 250.592896,321.332672 250.002853,321.004181 
	C249.496094,320.726257 248.989319,320.448334 248.123856,319.736542 
	C246.800018,318.799377 245.834869,318.296112 244.869705,317.792847 
z"/>
<path fill="#A37C5F" opacity="1.000000" stroke="none" 
	d="
M253.755615,332.534912 
	C254.441528,333.008179 254.736359,333.524567 255.221375,334.277039 
	C250.444916,334.473785 245.217819,335.392853 240.582779,334.133301 
	C235.663528,332.796509 237.695023,328.583923 239.460739,324.177917 
	C242.033951,331.551300 246.485046,334.397705 253.755615,332.534912 
z"/>
<path fill="#A37C5F" opacity="1.000000" stroke="none" 
	d="
M259.259033,332.659302 
	C262.121002,327.111053 262.516113,321.770752 257.048767,316.803101 
	C264.294159,319.990082 265.393066,326.633087 259.259033,332.659302 
z"/>
<path fill="#A37C5F" opacity="1.000000" stroke="none" 
	d="
M245.604340,308.554871 
	C244.802963,306.756958 243.977402,304.566254 243.052261,302.000061 
	C244.381577,301.021912 245.810471,300.419220 247.725494,300.064209 
	C248.708466,300.819427 249.205353,301.326904 249.702225,301.834412 
	C248.328201,303.943634 246.954163,306.052856 245.604340,308.554871 
z"/>
<path fill="#A37C5F" opacity="1.000000" stroke="none" 
	d="
M258.144714,304.964813 
	C256.743622,304.055237 255.342560,303.145691 253.972626,302.019104 
	C254.668915,301.216400 255.334045,300.630707 255.999176,300.045044 
	C260.328064,298.858582 260.634918,301.099945 259.347778,304.700806 
	C258.707581,304.999634 258.425964,304.985535 258.144714,304.964813 
z"/>
<path fill="#A37C5F" opacity="1.000000" stroke="none" 
	d="
M239.475815,305.782654 
	C240.041382,308.161652 240.382431,310.818359 240.771194,313.907349 
	C240.296371,311.579865 239.773834,308.820099 239.475815,305.782654 
z"/>
<path fill="#A68165" opacity="1.000000" stroke="none" 
	d="
M255.558090,299.969574 
	C255.334045,300.630707 254.668915,301.216400 253.731720,301.836670 
	C252.518738,301.884552 251.577805,301.897858 250.169556,301.872803 
	C249.205353,301.326904 248.708466,300.819427 248.071686,300.079834 
	C250.326859,299.863220 252.721939,299.878662 255.558090,299.969574 
z"/>
<path fill="#A37C5F" opacity="1.000000" stroke="none" 
	d="
M255.867371,315.710815 
	C254.769730,315.278076 253.507706,314.581482 252.096405,313.615479 
	C253.199097,314.046387 254.451019,314.746643 255.867371,315.710815 
z"/>
<path fill="#A37C5F" opacity="1.000000" stroke="none" 
	d="
M244.998871,318.029541 
	C245.834869,318.296112 246.800018,318.799377 247.898758,319.553528 
	C247.064255,319.291718 246.096146,318.778961 244.998871,318.029541 
z"/>
<path fill="#A37C5F" opacity="1.000000" stroke="none" 
	d="
M250.967392,312.667542 
	C250.238953,312.536102 249.331558,312.157776 248.234131,311.555786 
	C248.958878,311.694977 249.873672,312.057800 250.967392,312.667542 
z"/>
<path fill="#A68165" opacity="1.000000" stroke="none" 
	d="
M258.184753,305.159607 
	C258.425964,304.985535 258.707581,304.999634 259.197601,305.006683 
	C259.201569,305.323303 258.997467,305.640442 258.793365,305.957550 
	C258.603821,305.756500 258.414307,305.555450 258.184753,305.159607 
z"/>
<path fill="#A37C5F" opacity="1.000000" stroke="none" 
	d="
M250.130615,321.237610 
	C250.592896,321.332672 251.182938,321.661194 251.921570,322.197144 
	C251.466232,322.093414 250.862305,321.782227 250.130615,321.237610 
z"/>
<path fill="#A37C5F" opacity="1.000000" stroke="none" 
	d="
M255.779007,325.369324 
	C255.976349,325.225800 256.152985,325.412872 256.200867,325.838440 
	C256.185059,325.973663 255.871246,325.596619 255.779007,325.369324 
z"/>
<path fill="#5F3234" opacity="1.000000" stroke="none" 
	d="
M278.807129,302.779846 
	C289.255249,300.503418 295.445862,304.978638 295.866760,315.165802 
	C296.026794,319.039124 295.388092,323.160828 294.121246,326.826447 
	C292.281769,332.149139 285.847229,334.928223 280.531677,333.150726 
	C279.500824,332.806030 278.256195,331.097107 278.249207,330.010132 
	C278.191803,321.050873 278.403168,312.089874 278.807129,302.779846 
z"/>
</svg>